<?xml version="1.0" encoding="utf-8"?>
<!-- Generator: Adobe Illustrator 18.0.0, SVG Export Plug-In . SVG Version: 6.00 Build 0)  -->
<!DOCTYPE svg PUBLIC "-//W3C//DTD SVG 1.1//EN" "http://www.w3.org/Graphics/SVG/1.1/DTD/svg11.dtd">
<svg version="1.1" id="Слой_2" xmlns="http://www.w3.org/2000/svg" xmlns:xlink="http://www.w3.org/1999/xlink" x="0px" y="0px"
	 viewBox="-115.5 -13.3 303 35" enable-background="new -115.5 -13.3 303 35" xml:space="preserve">
<g>
	<g>
		<path fill="#FFFFFF" d="M-106.4,0v-3.1c0-0.5,0-1.1,0-1.7c0-0.7-0.1-1.4-0.3-2c-0.2-0.6-0.4-1.2-0.8-1.6c-0.4-0.4-0.9-0.7-1.5-0.7
			c-0.5,0-1,0.1-1.5,0.4c-0.5,0.3-0.9,0.7-1.3,1.2c-0.4,0.5-0.7,1.1-1,1.9c-0.3,0.8-0.4,1.6-0.5,2.6h-0.6l0.3-6.6h0.5
			c0,0.3,0.2,0.5,0.3,0.5c0.2,0.1,0.3,0.1,0.5,0.1c0.2,0,0.4,0,0.6-0.1c0.2-0.1,0.5-0.2,0.8-0.3c0.2-0.1,0.5-0.2,0.9-0.3
			c0.3-0.1,0.7-0.1,1.2-0.1c1,0,1.8,0.3,2.6,0.8c0.8,0.5,1.5,1.3,2,2.2c0.6,0.9,1,2.1,1.3,3.4c0.3,1.3,0.4,2.7,0.4,4.2
			c0,1.3-0.1,2.6-0.4,3.9c-0.3,1.3-0.7,2.5-1.3,3.5c-0.6,1-1.3,1.9-2.1,2.6c-0.9,0.7-1.9,1-3.1,1c-0.7,0-1.3-0.1-2-0.4
			s-1.2-0.6-1.6-1c-0.5-0.4-0.8-0.9-1.1-1.5c-0.3-0.6-0.4-1.2-0.4-1.9c0-0.9,0.2-1.6,0.6-2c0.4-0.4,0.9-0.6,1.4-0.6
			c0.5,0,0.9,0.2,1.3,0.7c0.4,0.4,0.5,1,0.5,1.5c0,0.2,0,0.4-0.1,0.6c-0.1,0.2-0.2,0.4-0.3,0.6c-0.1,0.2-0.3,0.4-0.5,0.7
			s-0.3,0.5-0.3,0.9c0,0.4,0.2,0.7,0.5,1.1c0.3,0.4,0.9,0.6,1.8,0.6c0.7,0,1.3-0.3,1.8-0.8c0.4-0.5,0.7-1.2,1-2
			c0.2-0.8,0.3-1.7,0.4-2.6c0.1-1,0.1-1.9,0.1-2.7V0.7h-5.7V0H-106.4z"/>
		<path fill="#FFFFFF" d="M-94.4,0.1c0.3,0,0.6,0,0.9-0.1c0.3-0.1,0.5-0.2,0.7-0.5c0.2-0.3,0.4-0.6,0.5-1.1c0.1-0.5,0.2-1.2,0.2-2
			c0-1.2,0.1-2.3,0.3-3.1c0.1-0.8,0.3-1.4,0.5-1.9c0.2-0.5,0.5-0.8,0.9-1c0.4-0.2,0.8-0.3,1.4-0.3c0.5,0,0.9,0.1,1.3,0.3
			c0.3,0.2,0.6,0.4,0.8,0.7s0.4,0.6,0.4,0.9c0.1,0.3,0.1,0.6,0.1,0.9c0,0.7-0.2,1.3-0.5,1.8c-0.3,0.5-0.8,0.8-1.5,0.8
			s-1.1-0.2-1.4-0.7C-90-5.5-90.1-6-90.1-6.4c0-0.1,0-0.2,0-0.3c0-0.1,0-0.2,0-0.3c0-0.1,0.1-0.3,0.1-0.4c0-0.1,0.1-0.3,0.1-0.4
			c0-0.1,0-0.3,0-0.4c0-0.1-0.1-0.2-0.3-0.2c-0.3,0-0.5,0.2-0.6,0.5c-0.1,0.3-0.3,0.8-0.3,1.3c-0.1,0.5-0.1,1-0.1,1.6
			c0,0.5,0,1,0,1.4c0,1.1-0.1,1.9-0.3,2.5s-0.4,1-0.9,1.3l0,0.1c0.3,0,0.7,0.1,1.1,0.2c0.5,0.1,1,0.3,1.5,0.7
			c0.5,0.3,0.9,0.9,1.3,1.5s0.6,1.6,0.7,2.7c0,0.6,0.1,1.2,0.1,1.8c0,0.6,0,1.2,0.1,1.7c0,0.5,0.1,0.9,0.3,1.3s0.4,0.5,0.7,0.5
			c0.2,0,0.4-0.1,0.6-0.3l0.3,0.5c-0.3,0.3-0.7,0.6-1.1,0.7c-0.4,0.1-0.7,0.2-1,0.3c-0.2,0-0.4,0-0.6,0c-0.6,0-1-0.2-1.4-0.4
			c-0.3-0.2-0.6-0.5-0.8-1c-0.2-0.5-0.4-1.1-0.5-1.9c-0.1-0.8-0.2-1.8-0.3-3c0-0.6-0.1-1.2-0.2-1.7s-0.2-1.1-0.4-1.5
			c-0.2-0.4-0.4-0.8-0.8-1s-0.8-0.4-1.4-0.4h-1.4v10h1.9v0.7h-7.2v-0.7h1.9V-8.8h-1.9v-0.7h7.2v0.7h-1.9v9H-94.4z"/>
		<path fill="#FFFFFF" d="M-85.3,1c0-1.7,0.2-3.2,0.7-4.5c0.4-1.3,1-2.5,1.7-3.4c0.7-0.9,1.5-1.6,2.4-2.1c0.9-0.5,1.7-0.8,2.6-0.8
			c0.9,0,1.8,0.3,2.6,0.8c0.9,0.5,1.7,1.2,2.4,2.1c0.7,0.9,1.3,2.1,1.7,3.4c0.4,1.3,0.7,2.8,0.7,4.5c0,1.5-0.2,3-0.6,4.3
			c-0.4,1.3-0.9,2.4-1.6,3.4c-0.7,1-1.5,1.7-2.4,2.3c-0.9,0.5-1.8,0.8-2.8,0.8c-0.9,0-1.8-0.2-2.6-0.7c-0.9-0.5-1.7-1.2-2.4-2.1
			c-0.7-0.9-1.3-2-1.7-3.4C-85,4.1-85.3,2.6-85.3,1z M-81.3,4.4c0,1.3,0.1,2.3,0.3,3.2c0.2,0.8,0.4,1.5,0.8,2
			c0.3,0.5,0.7,0.9,1.1,1.1c0.4,0.2,0.9,0.3,1.3,0.3c0.7,0,1.3-0.2,1.8-0.6c0.5-0.4,0.8-0.9,1.1-1.5c0.3-0.6,0.4-1.3,0.5-2.1
			c0.1-0.8,0.1-1.6,0.1-2.3v-6.9c0-0.9-0.1-1.8-0.2-2.6c-0.1-0.8-0.3-1.5-0.6-2.1c-0.3-0.6-0.6-1.1-1.1-1.4c-0.4-0.4-1-0.5-1.6-0.5
			c-0.8,0-1.4,0.3-1.9,0.8c-0.4,0.5-0.8,1.2-1,1.9c-0.2,0.7-0.4,1.5-0.4,2.2c-0.1,0.8-0.1,1.3-0.1,1.7V4.4z"/>
		<path fill="#FFFFFF" d="M-62-9.6v0.7h-1.6V0h5.2v-8.9h-1.6v-0.7h6.9v0.7h-1.9v19.6h1.9v0.7h-6.9v-0.7h1.6v-10h-5.2v10h1.6v0.7
			h-6.9v-0.7h1.9V-8.8h-1.9v-0.7H-62z"/>
		<path fill="#FFFFFF" d="M-51.4,1c0-1.7,0.2-3.2,0.7-4.5c0.4-1.3,1-2.5,1.7-3.4c0.7-0.9,1.5-1.6,2.4-2.1c0.9-0.5,1.7-0.8,2.6-0.8
			c0.9,0,1.8,0.3,2.6,0.8c0.9,0.5,1.7,1.2,2.4,2.1c0.7,0.9,1.3,2.1,1.7,3.4c0.4,1.3,0.7,2.8,0.7,4.5c0,1.5-0.2,3-0.6,4.3
			c-0.4,1.3-0.9,2.4-1.6,3.4c-0.7,1-1.5,1.7-2.4,2.3c-0.9,0.5-1.8,0.8-2.8,0.8c-0.9,0-1.8-0.2-2.6-0.7c-0.9-0.5-1.7-1.2-2.4-2.1
			c-0.7-0.9-1.3-2-1.7-3.4C-51.2,4.1-51.4,2.6-51.4,1z M-47.5,4.4c0,1.3,0.1,2.3,0.3,3.2c0.2,0.8,0.4,1.5,0.8,2
			c0.3,0.5,0.7,0.9,1.1,1.1c0.4,0.2,0.9,0.3,1.3,0.3c0.7,0,1.3-0.2,1.8-0.6c0.5-0.4,0.8-0.9,1.1-1.5c0.3-0.6,0.4-1.3,0.5-2.1
			c0.1-0.8,0.1-1.6,0.1-2.3v-6.9c0-0.9-0.1-1.8-0.2-2.6c-0.1-0.8-0.3-1.5-0.6-2.1c-0.3-0.6-0.6-1.1-1.1-1.4c-0.4-0.4-1-0.5-1.6-0.5
			c-0.8,0-1.4,0.3-1.9,0.8c-0.4,0.5-0.8,1.2-1,1.9c-0.2,0.7-0.4,1.5-0.4,2.2c-0.1,0.8-0.1,1.3-0.1,1.7V4.4z"/>
		<path fill="#FFFFFF" d="M-29.3-9.6l3.5,13.5l3.5-13.5h5.6v0.7h-1.9v19.6h1.9v0.7h-7.2v-0.7h1.9V-7.9l-4.9,19.3h-0.4l-5-19.3V6.7
			c0,1.5,0.1,2.5,0.4,3.1c0.3,0.6,0.7,0.9,1.4,1v0.7H-35v-0.7c0.8-0.1,1.3-0.6,1.6-1.3c0.2-0.8,0.4-1.7,0.4-2.9V-5.7
			c0-0.5,0-1,0-1.4c0-0.4-0.1-0.7-0.2-0.9c-0.1-0.3-0.3-0.5-0.5-0.6c-0.2-0.1-0.6-0.2-1-0.3v-0.7H-29.3z"/>
		<path fill="#FFFFFF" d="M-13.2-8.8h-1.9v-0.7h6.9v0.7h-1.6v16l5.2-14.5v-1.5h-1.6v-0.7h6.9v0.7h-1.9v19.6h1.9v0.7h-6.9v-0.7h1.6
			V-5.1L-9.8,9.4v1.3h1.6v0.7h-6.9v-0.7h1.9V-8.8z"/>
		<path fill="#FFFFFF" d="M8.4-9.6v0.7H6.8v7.3c0,0.6,0,1.1,0,1.5c0,0.5,0.1,0.9,0.2,1.2s0.3,0.6,0.5,0.8c0.2,0.2,0.6,0.3,1,0.3
			c0.2,0,0.4,0,0.7-0.1C9.6,2.1,9.8,2,10.1,1.9c0.3-0.1,0.5-0.2,0.7-0.4c0.2-0.1,0.4-0.2,0.5-0.3V-8.8H9.8v-0.7h6.9v0.7h-1.9v19.6
			h1.9v0.7H9.4v-0.7h1.9V2c-0.4,0.3-1,0.7-1.8,1S8,3.5,7.1,3.5c-0.9,0-1.5-0.2-2-0.5C4.6,2.7,4.2,2.3,4,1.8C3.7,1.3,3.5,0.7,3.5,0.1
			s-0.1-1.3-0.1-2v-6.9H1.5v-0.7H8.4z"/>
		<path fill="#FFFFFF" d="M20.1-8.8h-1.9v-0.7h12.8l0.2,6.7h-0.8c0-0.5-0.1-1.1-0.3-1.8c-0.1-0.7-0.4-1.4-0.8-2
			C29-7.3,28.6-7.8,28-8.2c-0.6-0.4-1.3-0.6-2.3-0.6h-2.1v8.4H25c0.4,0,0.7-0.1,1-0.4c0.3-0.2,0.5-0.5,0.7-0.9
			c0.2-0.4,0.3-0.8,0.4-1.2c0.1-0.4,0.1-0.9,0.1-1.3h0.8v8.4h-0.8c0-0.9-0.1-1.6-0.3-2.1c-0.2-0.5-0.4-0.9-0.6-1.2S26,0.5,25.7,0.4
			c-0.3-0.1-0.5-0.1-0.7-0.1h-1.5v10.5h2.1c0.7,0,1.4-0.2,1.9-0.5c0.6-0.4,1.1-0.8,1.5-1.4c0.4-0.6,0.8-1.3,1.1-2s0.5-1.5,0.6-2.3
			h0.8l-0.2,7H18.2v-0.7h1.9V-8.8z"/>
		<path fill="#FFFFFF" d="M44.4-2.8c-0.3-2-0.8-3.5-1.7-4.7C41.9-8.5,41-9.1,40-9.1c-0.9,0-1.5,0.3-2,0.9c-0.5,0.6-0.8,1.3-1,2.1
			c-0.2,0.8-0.3,1.7-0.3,2.5c0,0.8,0,1.5,0,2l0,4.4c0,1.6,0.1,3,0.3,4c0.2,1,0.5,1.9,0.8,2.5c0.3,0.6,0.7,1.1,1.1,1.3
			c0.4,0.2,0.8,0.4,1.2,0.4c0.4,0,0.8-0.1,1.3-0.4c0.5-0.2,0.9-0.6,1.4-1.2c0.4-0.5,0.8-1.3,1.2-2.1c0.3-0.9,0.6-2,0.7-3.3h0.8
			l-0.2,7.4h-0.8c-0.1-0.3-0.3-0.6-0.4-0.7c-0.2-0.1-0.3-0.1-0.5-0.1c-0.2,0-0.5,0.1-0.7,0.2c-0.2,0.1-0.5,0.3-0.7,0.4
			c-0.2,0.1-0.4,0.2-0.7,0.3c-0.3,0.1-0.7,0.2-1.1,0.2c-1.2,0-2.2-0.3-3.1-1c-0.9-0.7-1.7-1.5-2.3-2.6c-0.6-1.1-1.1-2.2-1.4-3.5
			c-0.3-1.3-0.5-2.6-0.5-3.9c0-1.2,0.2-2.5,0.5-3.7s0.8-2.4,1.4-3.4c0.6-1,1.4-1.8,2.3-2.5c0.9-0.6,1.9-1,3-1c0.6,0,1.1,0.1,1.6,0.3
			C42-9.4,42.5-9.2,42.9-9C43-9,43.1-9,43.2-8.9c0.1,0,0.2,0,0.3,0s0.2,0,0.4-0.1c0.2-0.1,0.3-0.3,0.4-0.5H45v6.8H44.4z"/>
		<path fill="#FFFFFF" d="M53,0.1c0.3,0,0.6,0,0.9-0.1c0.3-0.1,0.5-0.2,0.7-0.5c0.2-0.3,0.4-0.6,0.5-1.1c0.1-0.5,0.2-1.2,0.2-2
			c0-1.2,0.1-2.3,0.3-3.1c0.1-0.8,0.3-1.4,0.5-1.9c0.2-0.5,0.5-0.8,0.9-1c0.4-0.2,0.8-0.3,1.4-0.3c0.5,0,0.9,0.1,1.3,0.3
			c0.3,0.2,0.6,0.4,0.8,0.7c0.2,0.3,0.4,0.6,0.4,0.9c0.1,0.3,0.1,0.6,0.1,0.9c0,0.7-0.2,1.3-0.5,1.8c-0.3,0.5-0.8,0.8-1.5,0.8
			S58-4.7,57.7-5.1c-0.3-0.4-0.4-0.9-0.4-1.3c0-0.1,0-0.2,0-0.3c0-0.1,0-0.2,0-0.3c0-0.1,0.1-0.3,0.1-0.4c0-0.1,0.1-0.3,0.1-0.4
			c0-0.1,0-0.3,0-0.4c0-0.1-0.1-0.2-0.3-0.2c-0.3,0-0.5,0.2-0.6,0.5s-0.3,0.8-0.3,1.3c-0.1,0.5-0.1,1-0.1,1.6c0,0.5,0,1,0,1.4
			c0,1.1-0.1,1.9-0.3,2.5c-0.1,0.5-0.4,1-0.9,1.3l0,0.1c0.3,0,0.7,0.1,1.1,0.2c0.5,0.1,1,0.3,1.5,0.7C58,1.4,58.5,2,58.9,2.6
			c0.4,0.7,0.6,1.6,0.7,2.7c0,0.6,0.1,1.2,0.1,1.8c0,0.6,0,1.2,0.1,1.7c0,0.5,0.1,0.9,0.3,1.3c0.1,0.3,0.4,0.5,0.7,0.5
			c0.2,0,0.4-0.1,0.6-0.3l0.3,0.5c-0.3,0.3-0.7,0.6-1.1,0.7c-0.4,0.1-0.7,0.2-1,0.3c-0.2,0-0.4,0-0.6,0c-0.6,0-1-0.2-1.4-0.4
			c-0.3-0.2-0.6-0.5-0.8-1c-0.2-0.5-0.4-1.1-0.5-1.9s-0.2-1.8-0.3-3c0-0.6-0.1-1.2-0.2-1.7c-0.1-0.6-0.2-1.1-0.4-1.5
			c-0.2-0.4-0.4-0.8-0.8-1s-0.8-0.4-1.4-0.4h-1.4v10h1.9v0.7h-7.2v-0.7h1.9V-8.8h-1.9v-0.7h7.2v0.7h-1.9v9H53z"/>
		<path fill="#FFFFFF" d="M68.8,5.3h-4.7l-0.4,1.4c0,0.1,0,0.2-0.1,0.4c0,0.2-0.1,0.6-0.2,1.2c0,0.2-0.1,0.4-0.1,0.6
			c0,0.2,0,0.4,0.1,0.6c0.1,0.5,0.4,0.8,0.7,0.9c0.3,0.1,0.8,0.2,1.3,0.3v0.7h-5.1v-0.7c0.4,0,0.8-0.1,1-0.3
			c0.3-0.2,0.5-0.5,0.7-0.8c0.2-0.3,0.3-0.7,0.4-1.1s0.2-0.9,0.4-1.3l4.3-17h1.5l5.2,20.6h1.3v0.7h-6.8v-0.7h1.8L68.8,5.3z
			 M66.4-4.1l-2.2,8.7h4.5L66.4-4.1z"/>
		<path fill="#FFFFFF" d="M84.3,0.8h-2c-0.6,0-1.1,0.1-1.5,0.4c-0.3,0.3-0.6,0.6-0.7,1.1c-0.1,0.5-0.2,1-0.3,1.7
			c0,0.7-0.1,1.4-0.1,2.2c-0.1,1.1-0.2,2.1-0.3,2.8c-0.1,0.7-0.3,1.3-0.6,1.7c-0.2,0.4-0.6,0.7-0.9,0.8c-0.4,0.1-0.8,0.2-1.4,0.2
			c-0.4,0-0.8-0.1-1.2-0.2c-0.4-0.1-0.9-0.4-1.4-0.8l0.3-0.5c0.2,0.1,0.3,0.2,0.4,0.2c0.1,0,0.2,0.1,0.3,0.1c0.4,0,0.7-0.2,0.8-0.7
			c0.2-0.4,0.3-1,0.3-1.6c0.1-0.6,0.1-1.3,0.1-1.9c0-0.7,0-1.2,0.1-1.7c0.1-0.5,0.2-0.9,0.4-1.4c0.2-0.4,0.4-0.8,0.7-1.2
			c0.3-0.4,0.7-0.7,1.3-0.9c0.5-0.3,1.2-0.4,2-0.6V0.4c-0.7-0.1-1.3-0.2-1.9-0.4c-0.6-0.2-1.1-0.5-1.6-0.9c-0.4-0.4-0.8-0.9-1.1-1.5
			c-0.3-0.6-0.4-1.3-0.4-2.2c0-1.1,0.2-2,0.6-2.6c0.4-0.6,0.9-1.1,1.5-1.5c0.6-0.3,1.3-0.6,2-0.7c0.7-0.1,1.4-0.1,2.1-0.1h7.7v0.7
			h-1.9v19.6h1.9v0.7h-7.3v-0.7h1.9V0.8z M84.3-8.8h-1.6c-0.7,0-1.3,0.1-1.7,0.4s-0.7,0.6-0.9,1c-0.2,0.4-0.3,0.8-0.3,1.2
			c0,0.4,0,0.7,0,0.9v1.9c0,0.9,0.1,1.6,0.3,2.1c0.2,0.5,0.5,0.9,0.8,1.1c0.3,0.2,0.6,0.4,1,0.4s0.7,0.1,1,0.1h1.5V-8.8z"/>
		<path fill="#FFFFFF" d="M104.1,10.8h1.6v0.7h-6.9v-0.7h1.9V-8.8h-1.9v-0.7h16v0.7h-1.9v19.6h1.9v0.7h-6.9v-0.7h1.6V-8.8h-5.3V10.8
			z"/>
		<path fill="#FFFFFF" d="M118.2-8.8h-1.9v-0.7h7.1c1.3,0,2.4,0.2,3.3,0.5c0.9,0.3,1.6,0.7,2.1,1.3c0.5,0.5,0.9,1.1,1.1,1.8
			c0.2,0.7,0.3,1.4,0.3,2.2c0,2.2-0.6,3.9-1.7,4.8c-1.2,1-2.9,1.4-5.2,1.4h-1.6v8.3h2.1v0.7h-7.5v-0.7h1.9V-8.8z M122.8,1.8
			c0.5,0,1,0,1.4-0.1s0.8-0.3,1.1-0.6c0.3-0.3,0.5-0.8,0.7-1.4c0.2-0.6,0.3-1.5,0.3-2.6v-2.3c0-0.6,0-1.1-0.1-1.5
			c-0.1-0.4-0.2-0.8-0.4-1.2c-0.2-0.3-0.6-0.6-1-0.8c-0.4-0.2-1-0.3-1.8-0.3h-1.3V1.8H122.8z"/>
		<path fill="#FFFFFF" d="M137.9,5.3h-4.7l-0.4,1.4c0,0.1,0,0.2-0.1,0.4c0,0.2-0.1,0.6-0.2,1.2c0,0.2-0.1,0.4-0.1,0.6
			c0,0.2,0,0.4,0.1,0.6c0.1,0.5,0.4,0.8,0.7,0.9c0.3,0.1,0.8,0.2,1.3,0.3v0.7h-5.1v-0.7c0.4,0,0.8-0.1,1-0.3
			c0.3-0.2,0.5-0.5,0.7-0.8c0.2-0.3,0.3-0.7,0.4-1.1c0.1-0.4,0.2-0.9,0.4-1.3l4.3-17h1.5l5.2,20.6h1.3v0.7h-6.8v-0.7h1.8L137.9,5.3z
			 M135.6-4.1l-2.2,8.7h4.5L135.6-4.1z"/>
		<path fill="#FFFFFF" d="M151.3-9.6c1.2,0,2.2,0.1,3,0.4c0.8,0.2,1.4,0.6,1.9,0.9s0.8,0.9,1,1.4c0.2,0.5,0.3,1.1,0.3,1.7
			c0,1.4-0.4,2.5-1.3,3.2c-0.8,0.7-2,1.3-3.5,1.7l0,0.2c1.2,0.3,2.1,0.7,2.8,1.2c0.7,0.5,1.2,1,1.6,1.5c0.4,0.5,0.6,1,0.7,1.5
			c0.1,0.5,0.2,1,0.2,1.4c0,0.9-0.2,1.8-0.5,2.5c-0.3,0.7-0.8,1.4-1.3,1.9s-1.3,0.9-2.1,1.2c-0.8,0.3-1.7,0.4-2.7,0.4h-7.3v-0.7h1.9
			V-8.8h-1.9v-0.7H151.3z M151-0.6c0.1,0,0.3,0,0.6,0c0.3,0,0.6-0.1,0.9-0.4s0.6-0.5,0.8-0.9c0.2-0.4,0.4-1,0.4-1.8v-2.1
			c0-0.1,0-0.4,0-0.7c0-0.3-0.1-0.6-0.3-1c-0.2-0.3-0.4-0.6-0.8-0.9c-0.3-0.3-0.8-0.4-1.5-0.4h-1.8v8.2H151z M150.9,10.8
			c0.8,0,1.4-0.1,1.8-0.4c0.4-0.2,0.7-0.5,1-0.9c0.2-0.4,0.3-0.8,0.4-1.3c0-0.5,0.1-1,0.1-1.5V4.5c0-0.4,0-0.9-0.1-1.4
			c-0.1-0.5-0.2-1-0.4-1.4c-0.2-0.4-0.5-0.8-0.9-1.1c-0.4-0.3-0.9-0.4-1.6-0.4h-1.7v10.7H150.9z"/>
		<path fill="#FFFFFF" d="M173.3-9.6v0.7h-1.9v19.6h2.4l0.2,6.8h-0.9c-0.2-1.4-0.5-2.5-0.9-3.4c-0.4-0.8-0.8-1.4-1.3-1.8
			c-0.5-0.4-1-0.7-1.4-0.8c-0.5-0.1-0.9-0.1-1.2-0.1h-4.7c-0.4,0-0.8,0-1.2,0.1c-0.4,0.1-0.8,0.3-1.2,0.8c-0.4,0.4-0.7,1-1.1,1.8
			c-0.3,0.8-0.6,1.9-0.8,3.4h-0.9l0.3-6.8h2c0.4-0.8,0.7-1.6,1-2.5c0.3-0.9,0.4-2.1,0.5-3.6l0.3-8.3c0-0.8,0-1.5,0.1-2.1
			c0-0.7,0-1.2-0.1-1.7c-0.1-0.5-0.3-0.8-0.7-1c-0.3-0.2-0.8-0.3-1.5-0.3v-0.7H173.3z M167.9-8.8h-2.4c-0.4,0-0.7,0-1,0
			c-0.3,0-0.5,0.2-0.6,0.4c-0.2,0.2-0.3,0.6-0.4,1.1c-0.1,0.5-0.1,1.3-0.2,2.2l-0.4,9.7c0,0.9-0.1,1.6-0.2,2.2s-0.2,1.2-0.3,1.7
			s-0.3,0.9-0.4,1.3c-0.1,0.4-0.3,0.7-0.5,1h6.4V-8.8z"/>
		<path fill="#FFFFFF" d="M181.5,5.3h-4.7l-0.4,1.4c0,0.1,0,0.2-0.1,0.4c0,0.2-0.1,0.6-0.2,1.2c0,0.2-0.1,0.4-0.1,0.6
			c0,0.2,0,0.4,0.1,0.6c0.1,0.5,0.4,0.8,0.7,0.9c0.3,0.1,0.8,0.2,1.3,0.3v0.7h-5.1v-0.7c0.4,0,0.8-0.1,1-0.3
			c0.3-0.2,0.5-0.5,0.7-0.8c0.2-0.3,0.3-0.7,0.4-1.1c0.1-0.4,0.2-0.9,0.4-1.3l4.3-17h1.5l5.2,20.6h1.3v0.7h-6.8v-0.7h1.8L181.5,5.3z
			 M179.2-4.1l-2.2,8.7h4.5L179.2-4.1z"/>
	</g>
</g>
</svg>
