<?xml version="1.0" encoding="utf-8"?>
<!-- Generator: Adobe Illustrator 18.0.0, SVG Export Plug-In . SVG Version: 6.00 Build 0)  -->
<!DOCTYPE svg PUBLIC "-//W3C//DTD SVG 1.1//EN" "http://www.w3.org/Graphics/SVG/1.1/DTD/svg11.dtd">
<svg version="1.1" id="Слой_1" xmlns="http://www.w3.org/2000/svg" xmlns:xlink="http://www.w3.org/1999/xlink" x="0px" y="0px"
	 viewBox="0 0 292.6 41.1" enable-background="new 0 0 292.6 41.1" xml:space="preserve">
<g id="Слой_x0020_1">
	<g>
		<path fill="#1A1A1A" d="M37.8,32.7c-0.4,0-0.7-0.2-0.9-0.6c-0.2-0.4-0.3-0.9-0.3-1.5c0-0.6-0.1-1.3-0.1-2c0-0.7,0-1.5-0.1-2.2
			c-0.1-1.4-0.4-2.5-0.9-3.3c-0.5-0.8-1-1.5-1.6-1.9c-0.6-0.4-1.2-0.7-1.8-0.8c-0.6-0.1-1-0.2-1.4-0.2l0-0.2
			c0.5-0.4,0.9-0.9,1.1-1.6c0.2-0.6,0.3-1.6,0.3-3c0-0.5,0.1-1.1,0.1-1.7c0-0.7,0.1-1.3,0.1-1.9c0.1-0.6,0.2-1.1,0.4-1.5
			c0.2-0.4,0.4-0.6,0.8-0.6c0.2,0,0.3,0.1,0.3,0.2c0,0.1,0,0.3,0,0.5c0,0.2,0,0.4-0.1,0.5c-0.1,0.1-0.1,0.3-0.2,0.5
			c0,0.1,0,0.2,0,0.3c0,0.1,0,0.2,0,0.3c0,0.6,0.2,1.1,0.5,1.6c0.4,0.5,0.9,0.8,1.7,0.8c0.8,0,1.4-0.3,1.8-0.9
			c0.4-0.7,0.6-1.4,0.6-2.2c0-0.3-0.1-0.7-0.2-1.1c-0.1-0.4-0.3-0.8-0.6-1.1c-0.2-0.3-0.6-0.6-1-0.8C36.1,8.1,35.6,8,35,8
			c-0.7,0-1.2,0.1-1.7,0.3c-0.4,0.2-0.8,0.6-1.1,1.2c-0.3,0.6-0.5,1.3-0.7,2.3c-0.2,1-0.3,2.2-0.3,3.7c0,1-0.1,1.9-0.2,2.5
			c-0.2,0.6-0.3,1.1-0.6,1.4c-0.2,0.3-0.5,0.5-0.9,0.6C29.2,20,28.8,20,28.4,20H27V9.1h2.3V8.3h-7.9h-0.8h-5v0.9h0.4
			c0.1,0,0.2,0,0.4,0c0.2,0,0.4,0.1,0.6,0.2c0.2,0.1,0.4,0.3,0.6,0.5c0.1,0.3,0.2,0.6,0.2,1.1c0,0.1,0,0.4-0.1,0.8
			c0,0.4-0.2,1.1-0.5,2.1l-2.8,9.9L9.3,9.1h2.1V8.3H2.9v0.9h1.7L12,30.2c-0.2,0.7-0.5,1.3-0.8,1.7c-0.3,0.4-0.6,0.7-0.8,0.9
			s-0.5,0.3-0.8,0.4c-0.3,0-0.5,0.1-0.7,0.1c-0.7,0-1.2-0.1-1.5-0.4c-0.3-0.3-0.5-0.5-0.5-0.7c0-0.1,0.1-0.2,0.2-0.3
			c0.1-0.1,0.3-0.2,0.4-0.3c0.1-0.1,0.3-0.2,0.5-0.2c0.2-0.1,0.3-0.2,0.5-0.3c0.2-0.2,0.4-0.4,0.7-0.8c0.2-0.4,0.3-0.8,0.3-1.5
			c0-0.9-0.2-1.6-0.7-2.1c-0.5-0.5-1-0.8-1.6-0.8c-0.7,0-1.3,0.3-1.8,0.8c-0.5,0.6-0.8,1.3-0.8,2.3c0,0.7,0.1,1.3,0.3,1.9
			c0.2,0.6,0.5,1.2,0.9,1.6c0.4,0.5,0.9,0.8,1.4,1.1c0.5,0.3,1.1,0.4,1.7,0.4c0.7,0,1.4-0.2,1.9-0.6c0.5-0.4,1-0.9,1.4-1.5
			c0.4-0.6,0.8-1.4,1.1-2.2c0.3-0.9,0.6-1.8,0.9-2.8l4.4-14.9c0.2-0.6,0.4-1.2,0.8-1.8c0.3-0.5,1-1,2-1.3h1.4v23.8h-2.3v0.9h8.8
			v-0.9H27V20.8h1.7c0.7,0,1.3,0.2,1.7,0.5c0.4,0.3,0.7,0.7,0.9,1.3c0.2,0.5,0.3,1.2,0.4,1.8c0.1,0.7,0.1,1.4,0.2,2.1
			c0.1,1.5,0.2,2.7,0.4,3.6s0.3,1.7,0.6,2.3c0.2,0.6,0.6,1,1,1.2c0.4,0.3,1,0.4,1.7,0.5c0.2,0,0.5,0,0.8,0c0.3-0.1,0.7-0.2,1.2-0.3
			c0.5-0.2,1-0.5,1.4-0.9l-0.3-0.6C38.2,32.6,38,32.7,37.8,32.7z"/>
		<path fill="#1A1A1A" d="M76,5.4C76.3,5,76.5,4.6,76.5,4c0-0.5-0.1-0.9-0.3-1.1c-0.2-0.3-0.4-0.5-0.6-0.6c-0.2-0.1-0.4-0.2-0.7-0.2
			c-0.2,0-0.3,0-0.4,0c0,0-0.2,0-0.4,0c-0.2,0-0.5,0.1-0.7,0.2c-0.2,0.1-0.4,0.3-0.6,0.6c-0.2,0.3-0.3,0.6-0.3,1.1
			c0,0.6,0.2,1,0.5,1.4c0.3,0.4,0.8,0.6,1.5,0.6C75.2,5.9,75.7,5.7,76,5.4z"/>
		<polygon fill="#1A1A1A" points="73.3,9.1 75.6,9.1 75.6,32.9 73.3,32.9 73.3,33.8 82.1,33.8 82.1,32.9 79.8,32.9 79.8,9.1 
			82.1,9.1 82.1,8.3 73.3,8.3 		"/>
		<path fill="#1A1A1A" d="M82,2.3c-0.2-0.1-0.5-0.2-0.7-0.2c-0.2,0-0.4,0-0.4,0c0,0-0.2,0-0.4,0c-0.2,0-0.5,0.1-0.7,0.2
			c-0.2,0.1-0.4,0.3-0.6,0.6C79,3.1,78.9,3.5,78.9,4c0,0.6,0.2,1,0.5,1.4c0.4,0.4,0.9,0.6,1.5,0.6c0.7,0,1.2-0.2,1.5-0.6
			C82.8,5,82.9,4.6,82.9,4c0-0.5-0.1-0.9-0.3-1.1C82.5,2.6,82.2,2.4,82,2.3z"/>
		<path fill="#1A1A1A" d="M56,12.6c-0.3-0.9-0.7-1.6-1.4-2.3c-0.6-0.6-1.5-1.1-2.6-1.5c-1.1-0.4-2.4-0.6-4-0.6h-8.6v0.9h2.3v23.8
			h-2.3v0.9h9.1v-0.9H46v-10h2c2.8,0,4.9-0.6,6.3-1.8c1.4-1.2,2.1-3.1,2.1-5.8C56.4,14.4,56.2,13.5,56,12.6z M51.6,16.4
			c0,1.4-0.1,2.4-0.3,3.1c-0.2,0.8-0.5,1.3-0.9,1.7c-0.4,0.4-0.8,0.6-1.4,0.7C48.5,22,48,22,47.4,22H46V9.1h1.6
			c0.9,0,1.6,0.1,2.2,0.3c0.5,0.2,0.9,0.5,1.2,0.9c0.3,0.4,0.4,0.9,0.5,1.4c0.1,0.6,0.1,1.2,0.1,1.8L51.6,16.4L51.6,16.4z"/>
		<path fill="#1A1A1A" d="M288.9,32.9L282.6,8h-1.8l-5.3,20.6c-0.1,0.6-0.3,1.1-0.4,1.6c-0.1,0.5-0.3,1-0.5,1.4
			c-0.2,0.4-0.5,0.7-0.8,1c-0.3,0.3-0.8,0.4-1.3,0.4h-2.8V9.1h2.3V8.3h-15.8v0.9c0.8-0.1,1.5,0,1.9,0.3c0.4,0.3,0.7,0.7,0.8,1.3
			s0.2,1.2,0.2,2.1c0,0.8-0.1,1.7-0.1,2.6l-0.3,10.1c-0.1,1.8-0.3,3.2-0.6,4.4c-0.3,1.1-0.8,2.2-1.2,3h-2.4l-0.3,8.2h1.1
			c0.2-1.7,0.6-3.1,0.9-4c0.4-1,0.8-1.7,1.3-2.2c0.5-0.5,1-0.8,1.5-0.9c0.5-0.1,1-0.2,1.5-0.2h5.6c0.4,0,0.9,0.1,1.4,0.2
			c0.6,0.1,1.2,0.4,1.8,0.9c0.6,0.5,1.1,1.2,1.6,2.2c0.5,1,0.8,2.3,1.1,4h1.1l-0.2-7.4h6.1v-0.9c-0.7-0.1-1.2-0.2-1.6-0.3
			c-0.4-0.1-0.7-0.5-0.9-1.1c-0.1-0.3-0.1-0.5-0.1-0.8c0-0.3,0-0.5,0.1-0.8c0.1-0.8,0.2-1.3,0.2-1.5c0-0.2,0.1-0.3,0.1-0.4l0.4-1.7
			h5.7l1.8,6.6h-2.2v0.9h8.2v-0.9L288.9,32.9L288.9,32.9z M265.6,32.9h-7.8c0.2-0.3,0.4-0.7,0.6-1.2c0.2-0.4,0.3-1,0.5-1.5
			c0.2-0.6,0.3-1.3,0.4-2c0.1-0.8,0.2-1.7,0.2-2.7l0.5-11.8c0-1.2,0.1-2.1,0.2-2.7c0.1-0.6,0.2-1.1,0.4-1.4c0.2-0.3,0.5-0.4,0.8-0.5
			c0.3,0,0.7-0.1,1.2-0.1h2.9L265.6,32.9L265.6,32.9z M277.3,25.5l2.7-10.6l2.7,10.6H277.3z"/>
		<path fill="#1A1A1A" d="M64.8,8H63l-5.3,20.6c-0.2,0.6-0.3,1.1-0.4,1.6c-0.1,0.5-0.3,1-0.5,1.4c-0.2,0.4-0.5,0.7-0.8,1
			c-0.3,0.3-0.8,0.4-1.3,0.4v0.9h6.2v-0.9c-0.7-0.1-1.2-0.2-1.6-0.3c-0.4-0.1-0.7-0.5-0.9-1.1c-0.1-0.3-0.1-0.5-0.1-0.8
			c0-0.3,0.1-0.5,0.1-0.8c0.1-0.8,0.2-1.3,0.3-1.5c0-0.2,0.1-0.3,0.1-0.4l0.4-1.7h5.7l1.8,6.6h-2.2v0.9h8.2v-0.9h-1.6L64.8,8z
			 M59.4,25.5l2.8-10.6l2.7,10.6H59.4z"/>
		<polygon fill="#1A1A1A" points="183.2,9.1 185.5,9.1 185.5,32.9 183.2,32.9 183.2,33.8 191.6,33.8 191.6,32.9 189.7,32.9 
			189.7,9.1 196.1,9.1 196.1,32.9 194.1,32.9 194.1,33.8 202.6,33.8 202.6,32.9 200.3,32.9 200.3,9.1 202.6,9.1 202.6,8.3 
			183.2,8.3 		"/>
		<path fill="#1A1A1A" d="M252.9,23c-0.4-0.6-1.1-1.2-1.9-1.8c-0.8-0.6-2-1.1-3.3-1.5l0-0.2c1.8-0.4,3.2-1.1,4.2-2s1.6-2.2,1.6-3.9
			c0-0.7-0.1-1.4-0.4-2.1c-0.2-0.7-0.7-1.2-1.3-1.7c-0.6-0.5-1.4-0.9-2.4-1.2c-1-0.3-2.2-0.4-3.7-0.4h-8.7v0.9h2.3v23.8h-2h-0.3
			h-1.4L229.4,8h-1.8l-5.2,20.6c-0.2,0.6-0.3,1.1-0.4,1.6c-0.1,0.5-0.3,1-0.5,1.4c-0.2,0.4-0.5,0.7-0.8,1c-0.3,0.3-0.7,0.4-1.3,0.4
			v0.9h6.2v-0.9c-0.7-0.1-1.2-0.2-1.6-0.3c-0.4-0.1-0.7-0.5-0.9-1.1c-0.1-0.3-0.1-0.5-0.1-0.8c0-0.3,0-0.5,0.1-0.8
			c0.1-0.8,0.2-1.3,0.2-1.5c0.1-0.2,0.1-0.3,0.1-0.4l0.4-1.7h5.7l1.8,6.6h-2.2v0.9h8h0.3h8.6c1.2,0,2.3-0.2,3.3-0.5
			c1-0.3,1.9-0.8,2.6-1.4c0.7-0.6,1.3-1.4,1.6-2.3c0.4-0.9,0.6-1.9,0.6-3c0-0.5-0.1-1.1-0.2-1.7S253.4,23.6,252.9,23z M224,25.5
			l2.7-10.6l2.7,10.6H224z M243.5,9.1h2.2c0.8,0,1.4,0.2,1.8,0.5c0.4,0.3,0.7,0.7,0.9,1.1c0.2,0.4,0.3,0.8,0.3,1.2
			c0,0.4,0,0.7,0,0.8v2.6c0,0.9-0.1,1.7-0.4,2.2c-0.3,0.5-0.6,0.9-1,1.2c-0.4,0.2-0.8,0.4-1.1,0.4c-0.3,0.1-0.6,0.1-0.7,0.1h-2
			L243.5,9.1L243.5,9.1z M249.2,28c0,0.6,0,1.2-0.1,1.8c-0.1,0.6-0.2,1.1-0.5,1.6c-0.3,0.5-0.7,0.8-1.2,1.1
			c-0.5,0.3-1.3,0.4-2.2,0.4h-1.8V20h2.1c0.9,0,1.5,0.2,2,0.6c0.5,0.3,0.8,0.8,1.1,1.4c0.2,0.5,0.4,1.1,0.5,1.8
			c0.1,0.6,0.1,1.2,0.1,1.7L249.2,28L249.2,28z"/>
		<path fill="#1A1A1A" d="M212.9,22.9c2.8,0,4.9-0.6,6.3-1.8c1.4-1.2,2.1-3.1,2.1-5.8c0-0.9-0.1-1.8-0.4-2.7
			c-0.3-0.9-0.7-1.6-1.3-2.3c-0.7-0.6-1.5-1.1-2.6-1.5c-1.1-0.4-2.4-0.6-4-0.6h-8.6v0.9h2.3v23.8h-2.3v0.9h9.1v-0.9H211v-10H212.9z
			 M211,9.1h1.7c0.9,0,1.6,0.1,2.2,0.3c0.5,0.2,0.9,0.5,1.2,0.9c0.3,0.4,0.5,0.9,0.5,1.4c0.1,0.6,0.1,1.2,0.1,1.8v2.8
			c0,1.4-0.1,2.4-0.3,3.1c-0.2,0.8-0.5,1.3-0.9,1.7c-0.4,0.4-0.8,0.6-1.3,0.7c-0.5,0.1-1.1,0.1-1.8,0.1H211L211,9.1L211,9.1z"/>
		<path fill="#1A1A1A" d="M166.4,8h-1.8l-5.2,20.6c-0.2,0.6-0.3,1.1-0.4,1.6c-0.1,0.5-0.3,1-0.5,1.4c-0.2,0.4-0.5,0.7-0.8,1
			c-0.1,0.1-0.2,0.1-0.3,0.2l-0.2-0.3c-0.2,0.2-0.5,0.3-0.7,0.3c-0.4,0-0.7-0.2-0.8-0.6c-0.2-0.4-0.3-0.9-0.3-1.5
			c0-0.6-0.1-1.3-0.1-2c0-0.7,0-1.5-0.1-2.2c-0.1-1.4-0.4-2.5-0.9-3.3c-0.5-0.8-1-1.5-1.6-1.9c-0.6-0.4-1.2-0.7-1.8-0.8
			c-0.6-0.1-1.1-0.2-1.4-0.2l0-0.2c0.5-0.4,0.9-0.9,1.1-1.6c0.2-0.6,0.3-1.6,0.3-3c0-0.5,0.1-1.1,0.1-1.7s0.1-1.3,0.1-1.9
			s0.2-1.1,0.4-1.5c0.2-0.4,0.4-0.6,0.8-0.6c0.2,0,0.3,0.1,0.4,0.2c0,0.1,0,0.3,0,0.5c0,0.2,0,0.4-0.1,0.5c-0.1,0.1-0.1,0.3-0.2,0.5
			c0,0.1,0,0.2,0,0.3c0,0.1,0,0.2,0,0.3c0,0.6,0.2,1.1,0.5,1.6c0.3,0.5,0.9,0.8,1.7,0.8c0.8,0,1.4-0.3,1.8-0.9
			c0.4-0.7,0.6-1.4,0.6-2.2c0-0.3-0.1-0.7-0.2-1.1c-0.1-0.4-0.3-0.8-0.5-1.1c-0.2-0.3-0.6-0.6-1-0.8c-0.4-0.2-0.9-0.3-1.5-0.3
			c-0.7,0-1.2,0.1-1.7,0.3c-0.5,0.2-0.8,0.6-1.1,1.2c-0.3,0.6-0.5,1.3-0.7,2.3c-0.2,1-0.3,2.2-0.3,3.7c0,1-0.1,1.9-0.2,2.5
			c-0.2,0.6-0.4,1.1-0.6,1.4c-0.3,0.3-0.5,0.5-0.9,0.6c-0.3,0.1-0.7,0.1-1.1,0.1h-1.5V9.1h2.3V8.3h-8.7v0.9h2.3v23.8h-2.3v0.9h8.7
			v-0.9h-2.3V20.8h1.7c0.7,0,1.3,0.2,1.7,0.5c0.4,0.3,0.7,0.7,0.9,1.3c0.2,0.5,0.4,1.2,0.4,1.8c0.1,0.7,0.2,1.4,0.2,2.1
			c0.1,1.5,0.2,2.7,0.4,3.6c0.1,1,0.3,1.7,0.6,2.3c0.2,0.6,0.6,1,1,1.2c0.4,0.3,1,0.4,1.7,0.5c0.3,0,0.5,0,0.8,0
			c0.3-0.1,0.7-0.2,1.2-0.3c0.1,0,0.2-0.1,0.3-0.1v0.1h6.2v-0.9c-0.7-0.1-1.2-0.2-1.6-0.3c-0.4-0.1-0.7-0.5-0.9-1.1
			c-0.1-0.3-0.1-0.5-0.1-0.8c0-0.3,0.1-0.5,0.1-0.8c0.1-0.8,0.2-1.3,0.3-1.5c0-0.2,0.1-0.3,0.1-0.4l0.4-1.7h5.7l1.8,6.6h-2.2v0.9
			h8.2v-0.9h-1.6L166.4,8z M161,25.5l2.7-10.6l2.7,10.6H161z"/>
		<path fill="#1A1A1A" d="M119.4,28.7c-0.4,1.1-0.9,2-1.5,2.6c-0.5,0.7-1.1,1.1-1.7,1.4c-0.6,0.3-1.1,0.5-1.6,0.5
			c-0.5,0-0.9-0.2-1.4-0.5c-0.5-0.3-0.9-0.8-1.3-1.6c-0.4-0.8-0.7-1.8-1-3c-0.2-1.3-0.4-2.9-0.4-4.9l0-5.3c0-0.6,0-1.4,0.1-2.4
			c0-1,0.1-2.1,0.4-3c0.2-1,0.6-1.9,1.2-2.6c0.6-0.7,1.4-1.1,2.5-1.1c1.2,0,2.4,0.7,3.3,2c1,1.4,1.7,3.2,2,5.6h0.8V8.3h-1
			c-0.1,0.3-0.2,0.5-0.4,0.6c-0.2,0.1-0.4,0.2-0.5,0.2s-0.2,0-0.3,0c-0.1,0-0.2-0.1-0.3-0.1c-0.5-0.2-1-0.4-1.6-0.6
			c-0.6-0.2-1.3-0.3-2-0.3c-1.3,0-2.5,0.4-3.6,1.2c-1.1,0.8-2,1.8-2.8,3c-0.8,1.3-1.4,2.6-1.8,4.1c-0.4,1.5-0.6,3-0.6,4.5
			c0,1.6,0.2,3.1,0.6,4.7c0.4,1.6,1,3,1.8,4.3c0.8,1.3,1.7,2.3,2.8,3.1c1.1,0.8,2.4,1.2,3.8,1.2c0.6,0,1-0.1,1.4-0.2
			c0.4-0.1,0.6-0.3,0.9-0.4c0.3-0.2,0.6-0.3,0.9-0.5c0.3-0.2,0.6-0.2,0.9-0.2c0.2,0,0.4,0.1,0.6,0.2c0.2,0.1,0.4,0.4,0.6,0.8h1
			l0.2-9h-1C120.1,26.3,119.8,27.7,119.4,28.7z"/>
		<polygon fill="#1A1A1A" points="95.8,9.1 97.7,9.1 97.7,19.9 91.3,19.9 91.3,9.1 93.2,9.1 93.2,8.3 84.9,8.3 84.9,9.1 87.1,9.1 
			87.1,32.9 84.9,32.9 84.9,33.8 93.2,33.8 93.2,32.9 91.3,32.9 91.3,20.7 97.7,20.7 97.7,32.9 95.8,32.9 95.8,33.8 104.1,33.8 
			104.1,32.9 101.9,32.9 101.9,9.1 104.1,9.1 104.1,8.3 95.8,8.3 		"/>
		<path fill="#1A1A1A" d="M136,21.1c-0.7-0.6-1.6-1.1-2.5-1.4c-1-0.3-2.1-0.5-3.2-0.5h-1.2V9.1h2.3V8.3h-8.8v0.9h2.3v23.8h-2.3v0.9
			h8.1c0.7,0,1.6-0.1,2.5-0.2c0.9-0.1,1.7-0.5,2.5-1c0.8-0.5,1.4-1.2,1.9-2.2c0.5-0.9,0.8-2.2,0.8-3.8c0-1.2-0.2-2.3-0.6-3.2
			C137.3,22.5,136.7,21.7,136,21.1z M133.5,28c0,1-0.1,1.8-0.2,2.4c-0.1,0.6-0.3,1.1-0.6,1.5c-0.3,0.4-0.6,0.7-1.1,0.8
			c-0.4,0.2-0.9,0.2-1.5,0.2h-1V20.1h1.2c0.7,0,1.2,0.1,1.6,0.3c0.4,0.2,0.7,0.5,1,0.9c0.2,0.4,0.4,0.9,0.5,1.6
			c0.1,0.6,0.1,1.3,0.1,2.1L133.5,28L133.5,28z"/>
	</g>
</g>
</svg>
